<svg id="Layer_1" data-name="Layer 1" xmlns="http://www.w3.org/2000/svg" viewBox="0 0 88 65"><defs><style>.cls-1{fill:#3c5896;}.cls-2{fill:#fff;}</style></defs><title>ceci</title><polygon class="cls-1" points="68.33 44.95 67.95 45.34 67.95 65 68.33 64.92 88 64.92 87.93 65 87.93 45.34 88 44.95 68.33 44.95"/><rect class="cls-2" x="75.94" y="47.94" width="5" height="13.98"/><polygon class="cls-1" points="0.31 44.95 0 45.34 0 65 0.31 64.92 19.98 64.92 19.98 65 19.98 45.34 19.98 44.95 0.31 44.95"/><path class="cls-2" d="M16,61.48l-1.3-3a5.75,5.75,0,0,1-3,.77c-2.28,0-3.41-1.72-3.41-4.29s1.19-4.12,3.32-4.12a5.34,5.34,0,0,1,2.9.77l1.36-3.05a8.09,8.09,0,0,0-4.44-1.1c-4.62,0-7.91,2.78-7.91,7.64,0,4.65,3,7.58,7.79,7.58A8.12,8.12,0,0,0,16,61.48"/><polygon class="cls-1" points="22.98 44.95 22.98 45.34 22.98 65 22.98 64.92 42.65 64.92 42.97 65 42.97 45.34 42.65 44.95 22.98 44.95"/><path class="cls-2" d="M30.62,52.94c.27-1,1.1-2.7,2.58-2.7s2.16,1.7,2.19,2.7Zm.35,3h8.71c.5-5-1.72-8.63-6.43-8.63A7.24,7.24,0,0,0,25.88,55c0,4.71,2.87,7.72,7.82,7.72a10,10,0,0,0,5.54-1.37l-1.39-2.8a7.86,7.86,0,0,1-3.7.73c-2.13,0-3.2-1.3-3.44-3.3"/><polygon class="cls-1" points="45.66 44.95 44.97 45.34 44.97 65 45.66 64.92 65.33 64.92 65.95 65 65.95 45.34 65.33 44.95 45.66 44.95"/><path class="cls-2" d="M61.33,61.48l-1.3-3a5.75,5.75,0,0,1-3,.77c-2.28,0-3.41-1.72-3.41-4.29s1.19-4.12,3.32-4.12a5.35,5.35,0,0,1,2.9.77l1.36-3.05a8.09,8.09,0,0,0-4.44-1.1c-4.62,0-7.91,2.78-7.91,7.64,0,4.65,3,7.58,7.79,7.58a8.12,8.12,0,0,0,4.68-1.24"/><polygon class="cls-1" points="0.31 0 0 0.31 0 42.77 0.31 42.95 42.78 42.95 42.97 42.77 42.97 0.31 42.78 0 0.31 0"/><path class="cls-2" d="M12,16V15H22V2.11A19.43,19.43,0,0,0,21.63,41l-1.14-6.19L22.23,32l-2-2.14,1.85-2.21-1.85-3,4.56-2.59L23.25,19H12V17H22.71L22,16Z"/><polygon class="cls-2" points="31.98 15.98 31.98 14.98 21.5 14.98 22.04 15.98 31.98 15.98"/><polygon class="cls-2" points="31.98 18.98 31.98 16.98 22.71 16.98 23.25 18.98 31.98 18.98"/><path class="cls-2" d="M23,40A18.51,18.51,0,0,0,23,3v.91C32,4.16,40.07,12,40.07,21.42A17.46,17.46,0,0,1,22.84,39h0Z"/></svg>